<?xml version="1.0" encoding="iso-8859-1"?>
<!-- Uploaded to: SVG Repo, www.svgrepo.com, Generator: SVG Repo Mixer Tools -->
<svg height="800px" width="800px" version="1.1" id="Layer_1" xmlns="http://www.w3.org/2000/svg" xmlns:xlink="http://www.w3.org/1999/xlink" 
	 viewBox="0 0 345.01 345.01" xml:space="preserve">
<g>
	<path style="fill:#FF7876;" d="M277.639,84.406h-4.42c-12.82,0-23.22,10.4-23.22,23.23c0-12.83-10.4-23.23-23.23-23.23h-9.71
		c0-16.73,13.56-30.29,30.29-30.29C264.08,54.116,277.639,67.676,277.639,84.406z"/>
	<path style="fill:#FF7876;" d="M127.959,84.406h-9.71c-12.83,0-23.23,10.4-23.23,23.23c0-12.83-10.4-23.23-23.22-23.23h-4.42
		c0-16.73,13.56-30.29,30.29-30.29S127.959,67.676,127.959,84.406z"/>
	<polygon style="fill:#FFE49C;" points="172.509,305.693 7.509,114.705 337.509,114.705 	"/>
	<path style="fill:#F59D00;" d="M207.849,84.406h-12.12c-12.82,0-23.22,10.4-23.22,23.23c0-12.83-10.4-23.23-23.22-23.23h-12.12
		l35.34-45.09L207.849,84.406z"/>
	<path style="fill:#CBE5C0;" d="M273.222,84.411h31.038c12.827,0,23.225,10.398,23.225,23.225v7.069h-77.488v-7.069
		C249.997,94.809,260.396,84.411,273.222,84.411z"/>
	<path style="fill:#30BAA1;" d="M195.734,84.411h31.038c12.827,0,23.225,10.398,23.225,23.225v7.069h-77.488v-7.069
		C172.509,94.809,182.908,84.411,195.734,84.411z"/>
	<path style="fill:#CBE5C0;" d="M118.246,84.411h31.038c12.827,0,23.225,10.398,23.225,23.225v7.069H95.021v-7.069
		C95.021,94.809,105.42,84.411,118.246,84.411z"/>
	<path style="fill:#30BAA1;" d="M40.758,84.411h31.038c12.827,0,23.225,10.398,23.225,23.225v7.069H17.533v-7.069
		C17.533,94.809,27.931,84.411,40.758,84.411z"/>
	<path style="fill:#30BAA1;" d="M249.999,114.587v0.12h-2.65C248.239,114.707,249.129,114.666,249.999,114.587z"/>
	<path style="fill:#CBE5C0;" d="M97.669,114.707h-2.65v-0.12C95.889,114.666,96.779,114.707,97.669,114.707z"/>
	<g>
		<path style="fill:#414042;" d="M344.33,111.584c-2.162-4.721-6.639-4.379-9.355-4.379c-0.232-16.743-13.917-30.294-30.715-30.294
			h-19.87c-3.487-17.259-18.769-30.294-37.041-30.294c-17.851,0-32.839,12.444-36.773,29.11L178.413,34.69
			c-3.004-3.831-8.808-3.825-11.806,0l-32.164,41.037c-3.933-16.666-18.922-29.11-36.773-29.11
			c-18.272,0-33.554,13.035-37.041,30.294h-19.87c-16.798,0-30.482,13.551-30.714,30.294H7.509c-6.397,0-9.872,7.545-5.675,12.403
			l165,190.987c2.989,3.458,8.359,3.462,11.351,0l165-190.987C345.103,117.387,345.55,114.253,344.33,111.584z M319.98,107.205
			h-62.459c0.234-8.631,7.326-15.294,15.701-15.294h31.038C312.788,91.911,319.752,98.732,319.98,107.205z M180.031,107.205
			c0.233-8.57,7.29-15.294,15.703-15.294h31.038c8.381,0,15.472,6.685,15.706,15.294H180.031z M102.541,107.205
			c0.234-8.648,7.339-15.294,15.705-15.294h31.038c8.434,0,15.47,6.733,15.703,15.294H102.541z M268.971,77.199
			c-7.498,1.05-14.217,4.849-18.973,10.34c-5.717-6.601-13.851-10.633-24.172-10.633C232.995,56.4,262.104,56.655,268.971,77.199z
			 M172.509,51.475l20.059,25.592c-7.952,0.817-15.089,4.728-20.059,10.47c-5.115-5.903-12.31-9.674-20.059-10.47L172.509,51.475z
			 M119.191,76.906c-9.623,0-17.753,3.232-24.171,10.633c-4.722-5.457-11.417-9.281-18.973-10.34
			C82.904,56.683,112.019,56.381,119.191,76.906z M40.758,91.911h31.038c8.44,0,15.467,6.712,15.701,15.294H25.039
			C25.268,98.732,32.232,91.911,40.758,91.911z M189.927,122.205l-83.013,96.088L23.9,122.205
			C27.888,122.205,183.091,122.205,189.927,122.205z M172.509,294.219l-55.684-64.454l92.925-107.561c7.138,0,105.929,0,111.368,0
			L172.509,294.219z"/>
		<circle style="fill:#414042;" cx="172.509" cy="235.078" r="5"/>
		<circle style="fill:#414042;" cx="247.349" cy="148.744" r="5"/>
		<circle style="fill:#414042;" cx="97.67" cy="148.744" r="5"/>
	</g>
</g>
</svg>